Simulation
nRows=46
nColumns=15
endheader
time  TH_x TH_y TH_z SC_y  SC_z  SC_x  AC_y  AC_z  AC_x  GH_y  GH_z  GH_yy  EL_x  PS_y
8.073123595505619  0.000000  0.000000  0.000000  -23.815505108231203  6.814316200140705  5.540278678973736  60.69234608236973  5.1392029653735385  5.7216032162215615  -111.07295332062212  5.13432466874017  164.68994208756803  16.753784101786305  120.000000
8.113288389513109  0.000000  0.000000  0.000000  -23.551755643863494  6.787429329825365  5.330929113608374  60.58382360408567  4.9380282906484565  5.7345469213935845  -104.38793825888814  4.362274050064274  157.64760513643634  16.26895876545471  120.000000
8.153453183520599  0.000000  0.000000  0.000000  -23.264721731004194  6.787767881877417  5.145285244883837  60.45245725476019  4.809461711110126  5.75623450872504  -94.07721873436586  3.499556737721735  146.82215238370293  15.725787738964302  120.000000
8.19361797752809  0.000000  0.000000  0.000000  -22.9591427927849  6.825853941366379  5.00381301050922  60.30006855494247  4.774167657568558  5.788280037882483  -75.20667131764814  2.6775333301275293  127.27548988947427  15.144273089880675  120.000000
8.23378277153558  0.000000  0.000000  0.000000  -22.642419579964468  6.9104196639756035  4.926194014609072  60.12971341884974  4.849371049312471  5.834100613121662  -41.19359115574339  2.309284317080532  92.42315177488395  14.547231760943726  120.000000
8.273947565543072  0.000000  0.000000  0.000000  -22.325558750323257  7.04895867871898  4.928215203390845  59.94477456070029  5.04606775624368  5.897290619320657  -5.690736105952694  2.9491424362491743  55.92124866344121  13.95790019391028  120.000000
8.314112359550561  0.000000  0.000000  0.000000  -22.02160359817347  7.245240023578381  5.019472099220298  59.747090184942124  5.36558443669929  5.982366912398884  14.195085542650597  4.423948085148486  34.886386234804995  13.396739984143613  120.000000
8.354277153558053  0.000000  0.000000  0.000000  -21.742691249786535  7.496163217602314  5.203755292447998  59.5390580698804  5.798793180382058  6.096400748632863  24.09193888328527  6.360018155094284  23.707496951586645  12.879988600236388  120.000000
8.394441947565543  0.000000  0.000000  0.000000  -21.497610139962024  7.793320413163277  5.479765926207524  59.32576328594607  6.328410232891174  6.24872967971572  29.448391282478564  8.593302045054573  16.959570979184644  12.418626769813367  120.000000
8.434606741573035  0.000000  0.000000  0.000000  -21.291633542380247  8.126725894794175  5.842508384185082  59.11285971416917  6.932183908477549  6.448718254136917  32.58297613104556  11.049006688332438  12.352674628840534  12.017280488262095  120.000000
8.474771535580524  0.000000  0.000000  0.000000  -21.128057440423955  8.486373055793784  6.284877369822977  58.90530695689542  7.58610737467913  6.70313637852619  34.50419877601365  13.67827505530153  8.908867575617363  11.675042831306108  120.000000
8.514936329588014  0.000000  0.000000  0.000000  -21.008551219564858  8.862674741612434  6.798359441633412  58.70695639706243  8.266424425192486  7.015341749501061  35.70315180839427  16.4404652695168  6.1666944837996995  11.386894794662993  120.000000
8.555101123595506  0.000000  0.000000  0.000000  -20.93430605033124  9.246820750003335  7.373507484398374  58.519786496826406  8.950535893679717  7.385358259588159  36.44503338048783  19.297808795714268  3.8874148000384707  11.146032581377607  120.000000
8.595265917602996  0.000000  0.000000  0.000000  -20.90727116039378  9.631122392751204  8.000405611306551  58.344196365167164  9.618098055302054  7.80935474467589  36.88598147165506  22.214653629741218  1.9362607157265572  10.945377284221806  120.000000
8.635430711610487  0.000000  0.000000  0.000000  -20.930122061810415  10.009516595524879  8.669353387775992  58.179453574211394  10.25225533545192  8.279775810460507  37.123498824459865  25.157797130328948  0.23107167999756448  10.7784801146764  120.000000
8.675595505617977  0.000000  0.000000  0.000000  -21.00605558068372  10.377494362744384  9.37137258686769  58.023977625887255  10.840191648327675  8.786084590260767  37.220759519228835  28.096730548148212  -1.282104949414587  10.64009484462777  120.000000
8.715760299625469  0.000000  0.000000  0.000000  -21.138112810331126  10.731799603178693  10.09820720994072  57.875569961324636  11.373042603229088  9.315721391120181  37.21965682194829  31.003478756799183  -2.6414774901256517  10.526186216762923  120.000000
8.755925093632959  0.000000  0.000000  0.000000  -21.328429578178753  11.0702335557516  10.842116124535698  57.73182556402118  11.845591679287818  9.854983950477083  37.14840833391047  33.85234327679665  -3.8760933234305703  10.43392568224696  120.000000
8.79608988764045  0.000000  0.000000  0.000000  -21.577442497586187  11.391360432193126  11.595486701998471  57.59055242990828  12.255680419034528  10.389968966460128  37.02645912985437  36.61964029803948  -5.009420043421541  10.361479029507274  120.000000
8.83625468164794  0.000000  0.000000  0.000000  -21.88331912125161  11.694040587662503  12.350401827007067  57.45006579064428  12.603414219702636  10.907547503465315  36.867818532281134  39.28339498474227  -6.061197684051141  10.307792452013114  120.000000
8.87641947565543  0.000000  0.000000  0.000000  -22.241844595019348  11.977270324537633  13.098572143225423  57.30939176790625  12.890660501049037  11.396040635336414  36.683173849670595  41.82351995348373  -7.048057210794517  10.272204031334477  120.000000
8.916584269662922  0.000000  0.000000  0.000000  -22.6466900634309  12.240381362911284  13.831851154046872  57.1681692859062  13.121124361296719  11.84575866466768  36.480917268993494  44.222336869487485  -7.983218777834428  10.253920197423817  120.000000
8.956749063670411  0.000000  0.000000  0.000000  -23.089924895044838  12.482964193414011  14.542929366377292  57.026434848381676  13.30035868280013  12.249544543507568  36.267944709009164  46.46529479391271  -8.875990670472587  10.251526155865944  120.000000
8.996913857677903  0.000000  0.000000  0.000000  -23.56248573972167  12.704502281606935  15.225821825274357  56.884266601187875  13.435429278686584  12.60335849606535  36.05039076522419  48.541419923071835  -9.731351794369475  10.262629525640355  120.000000
9.037078651685393  0.000000  0.000000  0.000000  -24.05479873290957  12.904309522915076  15.876189601964938  56.74156938915064  13.534558277357654  12.906248612060331  35.83408637406949  50.44351053749271  -10.549696684857263  10.283695507424866  120.000000
9.077243445692885  0.000000  0.000000  0.000000  -24.55737416634775  13.081610384459516  16.49139853080311  56.59787481179243  13.606721579265258  13.159913786961901  35.62467592527744  52.167886617218166  -11.326990347302232  10.310194066598442  120.000000
9.117408239700374  0.000000  0.000000  0.000000  -25.061002660292623  13.23547413360757  17.07018090373436  56.45239385744404  13.660995889650637  13.368024820870305  35.42785549827039  53.713681949084766  -12.055750921971647  10.337057702882312  120.000000
9.157573033707866  0.000000  0.000000  0.000000  -25.556562689888292  13.364805248691662  17.61192187259031  56.304330056419154  13.70569335051445  13.535541775289182  35.24968490780053  55.081710133454564  -12.72656058525794  10.359482936548623  120.000000
9.197737827715356  0.000000  0.000000  0.000000  -26.03462619742032  13.468479043189106  18.11585361979696  56.153419144768165  13.74765533120177  13.6678260356041  35.09684645729727  56.273156988614105  -13.329849499084991  10.3737442751539  120.000000
9.237902621722846  0.000000  0.000000  0.000000  -26.48503893161495  13.54552704368762  18.580304856493054  56.00042151039187  13.791719065015121  13.769897021694549  34.97670825198065  57.288316999251656  -13.857486185354643  10.377852836299803  120.000000
9.278067415730337  0.000000  0.000000  0.000000  -26.89666896607577  13.595301998484876  19.002179332568726  55.84749096913119  13.840486261611003  13.845816517275765  34.89725139403946  58.12559574332096  -14.30398147852358  10.371791729239046  120.000000
9.318232209737827  0.000000  0.000000  0.000000  -27.257489033742544  13.617596700014984  19.37676091243752  55.69825270768355  13.894399482517379  13.89833738895584  34.86677407269678  58.7810076052064  -14.666941828163262  10.35721814006888  120.000000
9.358397003745319  0.000000  0.000000  0.000000  -27.55506820875748  13.612724168273806  19.697912802176262  55.55755071293276  13.952193384955393  13.928740575281477  34.89343781518447  59.24817850555509  -14.946874587568482  10.336663235734449  120.000000
9.398561797752809  0.000000  0.000000  0.000000  -27.77738571864536  13.581534206913073  19.958480250768268  55.430935223423425  14.011487175686169  13.936906205930732  34.98464655486807  59.51876731418504  -15.146439812277197  10.312499445925035  120.000000
9.4387265917603  0.000000  0.000000  0.000000  -27.913810224050675  13.525354917988553  20.150737214854274  55.32402646558301  14.069403373286109  13.921453267329298  35.146471466614976  59.583065837096996  -15.26951896996911  10.285963323347154  120.000000
9.47889138576779  0.000000  0.000000  0.000000  -27.95601462998135  13.445905422507098  20.266713615714583  55.241941046298116  14.12304672154608  13.879926454271793  35.38317468787591  59.430631740494306  -15.320226276137957  10.256512362338396  120.000000
9.519056179775282  0.000000  0.000000  0.000000  -27.898653781506514  13.34519099379381  20.29831333624066  55.188917376340534  14.16977464255208  13.808952166772217  35.69694976245225  59.05082429688613  -15.302156064840633  10.221801541722494  120.000000
9.559220973782772  0.000000  0.000000  0.000000  -27.739779820357423  13.225379611155967  20.23726659164971  55.16816216817908  14.207183021847746  13.704448888079982  36.08789898173807  58.43320631590755  -15.217892412679294  10.178383563831147  120.000000
9.599385767790261  0.000000  0.000000  0.000000  -27.481051329919076  13.088611932218837  20.075089315151175  55.181793632374706  14.232955004129694  13.561897424532251  36.55409556178738  57.56801583041323  -15.06873195584527  10.122983363363224  120.000000
9.639550561797753  0.000000  0.000000  0.000000  -27.12788151726859  12.936985072379432  19.803252293768796  55.23075374701916  14.24478656432798  13.376625009674168  37.091538326960006  56.446680785492866  -14.85437997190349  10.05406053527153  120.000000
9.679715355805243  0.000000  0.000000  0.000000  -26.689500921682715  12.772328100013535  19.41348078823347  55.31469551480343  14.240205764842392  13.144256072522788  37.69404248482942  55.062503545066015  -14.572665663417046  9.973305096804824  120.000000
9.719880149812735  0.000000  0.000000  0.000000  -26.178936610868043  12.595791903863173  18.898282991837792  55.43169830131355  14.216251985589897  12.861504824331819  38.35304734438646  53.41148633539053  -14.21908459564555  9.886743685987543  120.000000
9.760044943820224  0.000000  0.000000  0.000000  -25.61283836097526  12.407659424443917  18.25180117332644  55.57801870234592  14.16950989844172  12.526949991687822  39.0572368824964  51.49343929910497  -13.786309314404225  9.804879465856704  120.000000
9.800209737827716  0.000000  0.000000  0.000000  -25.01101862991535  12.20702431463722  17.471071120301357  55.74782541782027  14.096405631074756  12.142049029020093  39.79200838087035  49.31321101884436  -13.26353192471655  9.74200195176159  120.000000
9.840374531835206  0.000000  0.000000  0.000000  -24.395636174188105  11.99169664727601  16.55726076905742  55.933249472650566  13.993783119738355  11.712053664990956  40.5388062975838  46.88202330622563  -12.63589515805894  9.714992258306705  120.000000
9.880539325842697  0.000000  0.000000  0.000000  -23.789944889193716  11.758313907973704  15.516817090342926  56.12482733538391  13.859728307912142  11.246535778587296  41.27438143268744  44.21841372526121  -11.884143329424331  9.741834473722003  120.000000
